<?xml version="1.0" encoding="iso-8859-1"?>
<!-- Generator: Adobe Illustrator 16.0.0, SVG Export Plug-In . SVG Version: 6.00 Build 0)  -->
<!DOCTYPE svg PUBLIC "-//W3C//DTD SVG 1.1//EN" "http://www.w3.org/Graphics/SVG/1.1/DTD/svg11.dtd">
<svg version="1.1" id="Layer_12" xmlns="http://www.w3.org/2000/svg" xmlns:xlink="http://www.w3.org/1999/xlink" x="0px" y="0px"
	 width="259.737px" height="259.822px" viewBox="0 0 259.737 259.822" style="enable-background:new 0 0 259.737 259.822;"
	 xml:space="preserve">
<g>
	<path d="M172.984,200.311c-57.367,38.439-124.566,14.645-153.003-26.654C-10.909,128.796-5.552,67.758,33.076,31.024
		c40.731-38.732,101.663-41.6,146.071-6.34c39.99,31.754,56.287,95.203,21.447,147.56c1.146,1.227,2.326,2.561,3.582,3.816
		c16.018,16.035,32.082,32.021,48.053,48.1c7.469,7.521,9.312,15.479,5.769,23.527c-5.854,13.295-21.98,16.301-32.693,5.834
		c-12.99-12.693-25.768-25.605-38.545-38.516C181.975,210.174,177.446,205.088,172.984,200.311z M39.699,110.022
		c0.088,38.74,31.214,69.916,69.869,69.982c38.866,0.066,70.208-31.283,70.168-70.187c-0.039-38.852-31.523-70.131-70.371-69.912
		C70.673,40.123,39.611,71.386,39.699,110.022z"/>
</g>
</svg>
