<?xml version="1.0" encoding="utf-8"?>
<!-- Generator: Adobe Illustrator 16.0.0, SVG Export Plug-In . SVG Version: 6.00 Build 0)  -->
<!DOCTYPE svg PUBLIC "-//W3C//DTD SVG 1.1//EN" "http://www.w3.org/Graphics/SVG/1.1/DTD/svg11.dtd">
<svg version="1.1" id="Layer_12" xmlns="http://www.w3.org/2000/svg" xmlns:xlink="http://www.w3.org/1999/xlink" x="0px" y="0px"
	 width="259.736px" height="259.822px" viewBox="0 0 259.736 259.822" enable-background="new 0 0 259.736 259.822"
	 xml:space="preserve">
<g>
	<path fill="#666666" d="M172.984,200.312c-57.366,38.438-124.565,14.645-153.003-26.654
		C-10.909,128.796-5.552,67.758,33.076,31.024c40.73-38.732,101.662-41.6,146.07-6.34c39.99,31.754,56.287,95.203,21.447,147.56
		c1.146,1.228,2.326,2.562,3.582,3.815c16.018,16.035,32.082,32.021,48.053,48.101c7.47,7.521,9.312,15.479,5.77,23.526
		c-5.854,13.295-21.98,16.302-32.693,5.834c-12.99-12.692-25.768-25.604-38.545-38.516
		C181.975,210.174,177.446,205.088,172.984,200.312z M39.699,110.022c0.088,38.741,31.214,69.917,69.868,69.982
		c38.866,0.065,70.208-31.282,70.168-70.187c-0.039-38.852-31.522-70.131-70.37-69.912C70.673,40.123,39.611,71.386,39.699,110.022z
		"/>
</g>
</svg>
